<?xml version="1.0" encoding="UTF-8" standalone="no"?>
<!-- Created with Inkscape (http://www.inkscape.org/) -->

<svg
   width="48"
   height="48"
   viewBox="0 0 12.7 12.7"
   version="1.1"
   id="svg1"
   xmlns="http://www.w3.org/2000/svg"
   xmlns:svg="http://www.w3.org/2000/svg">
  <defs
     id="defs1">
    <linearGradient
       id="swatch1">
      <stop
         style="stop-color:#000000;stop-opacity:1;"
         offset="0"
         id="stop1" />
    </linearGradient>
  </defs>
  <g
     id="layer2">
    <path
       style="color:#000000;fill:#000000;stroke-width:0.979863;stroke-linecap:round;-inkscape-stroke:none"
       d="M 6.4218108,2.339156 A 0.39009893,0.38767146 0 0 0 6.0436145,2.7398008 0.39009893,0.38767146 0 0 0 6.446768,3.1137359 c 0,0 0.177861,-0.00603 0.397394,0.0019 0.2195332,0.00793 0.4903561,0.041056 0.5797731,0.07059 0.4698832,0.1551964 0.9220253,0.3784514 1.1403484,0.6849117 0.5057803,0.7099676 0.4638962,1.3798982 0.155502,1.9765167 C 8.0715795,7.101676 6.7411486,8.3048404 5.3678526,8.9974899 5.0073859,9.1792987 4.2586298,9.3295435 3.6304533,9.4076738 3.0022768,9.4858041 2.4862655,9.5087889 2.4862655,9.5087889 a 0.39009893,0.38767146 0 0 0 -0.3743568,0.4025526 0.39009893,0.38767146 0 0 0 0.406993,0.3720275 c 0,0 0.5447829,-0.0225 1.2075406,-0.104931 C 4.3891999,10.096006 5.1625315,9.9698466 5.7210918,9.6881251 7.2332384,8.9254434 8.6640381,7.6548311 9.4147451,6.2025159 9.8314074,5.3964427 9.8622641,4.3547129 9.19973,3.4247125 8.8115048,2.87976 8.1959268,2.6236273 7.6696667,2.4498103 7.4058938,2.3626894 7.1214785,2.3500427 6.8729587,2.3410639 6.624439,2.332085 6.4218109,2.339156 6.4218108,2.339156 Z"
       id="path2" />
    <path
       style="color:#000000;fill:#000000;stroke-width:0.974986;stroke-linecap:round;-inkscape-stroke:none"
       d="m 6.2239046,2.3450154 c 0,0 -0.2006161,-0.00707 -0.4466682,0.0019 -0.2460521,0.00898 -0.5295439,0.023533 -0.7906976,0.1106544 -0.5210345,0.17382 -1.1305,0.4280447 -1.5148703,0.9729973 -0.6559553,0.9300005 -0.6235043,1.9717303 -0.2109794,2.7778035 0.7432529,1.4523151 2.1598452,2.7229275 3.6569766,3.4856092 0.5530141,0.281722 1.316766,0.4078812 1.9729427,0.4903122 0.6561767,0.08243 1.1955506,0.104931 1.1955506,0.104931 A 0.38622538,0.38767146 0 0 0 10.48911,9.9172015 0.38622538,0.38767146 0 0 0 10.118471,9.5146483 c 0,0 -0.5089872,-0.022984 -1.1309261,-0.1011152 C 8.365606,9.3354028 7.6242849,9.1851582 7.2673974,9.0033493 5.9077377,8.3106997 4.588617,7.1075354 3.9468474,5.8535186 3.6415154,5.2569001 3.601948,4.5869695 4.1027061,3.8770045 4.3188612,3.5705441 4.764613,3.3472893 5.2298304,3.1920928 c 0.088529,-0.029534 0.3585635,-0.062659 0.5759168,-0.07059 0.2173533,-0.00793 0.3915473,-0.0019 0.3915473,-0.0019 A 0.38622538,0.38767146 0 0 0 6.5964448,2.7456601 0.38622538,0.38767146 0 0 0 6.2239046,2.3450154 Z"
       id="path2-4" />
  </g>
</svg>
