<?xml version="1.0" encoding="UTF-8" standalone="no"?>
<!-- Created with Inkscape (http://www.inkscape.org/) -->

<svg
   width="48"
   height="48"
   viewBox="0 0 12.7 12.7"
   version="1.1"
   id="svg1"
   xmlns="http://www.w3.org/2000/svg"
   xmlns:svg="http://www.w3.org/2000/svg">
  <defs
     id="defs1">
    <linearGradient
       id="swatch1">
      <stop
         style="stop-color:#000000;stop-opacity:1;"
         offset="0"
         id="stop1" />
    </linearGradient>
  </defs>
  <g
     id="layer2">
    <path
       style="color:#000000;fill:#000000;stroke-width:0.979863;stroke-linecap:round;-inkscape-stroke:none"
       d="M 6.4218108,10.286954 A 0.39009893,0.38767146 0 0 1 6.0436145,9.8863096 0.39009893,0.38767146 0 0 1 6.446768,9.5123745 c 0,0 0.177861,0.00603 0.397394,-0.0019 0.2195332,-0.00793 0.4903561,-0.041056 0.5797731,-0.07059 C 7.8938183,9.2846881 8.3459604,9.0614331 8.5642835,8.7549728 9.0700638,8.0450052 9.0281797,7.3750746 8.7197855,6.7784561 8.0715795,5.5244344 6.7411486,4.32127 5.3678526,3.6286205 5.0073859,3.4468117 4.2586298,3.2965669 3.6304533,3.2184366 3.0022768,3.1403063 2.4862655,3.1173215 2.4862655,3.1173215 A 0.39009893,0.38767146 0 0 1 2.1119087,2.7147689 0.39009893,0.38767146 0 0 1 2.5189017,2.3427414 c 0,0 0.5447829,0.0225 1.2075406,0.104931 0.6627576,0.082432 1.4360892,0.2085914 1.9946495,0.4903129 C 7.2332384,3.700667 8.6640381,4.9712793 9.4147451,6.4235945 9.8314074,7.2296677 9.8622641,8.2713975 9.19973,9.2013979 8.8115048,9.7463504 8.1959268,10.002483 7.6696667,10.1763 c -0.2637729,0.08712 -0.5481882,0.09977 -0.796708,0.108747 -0.2485197,0.009 -0.4511478,0.0019 -0.4511479,0.0019 z"
       id="path2" />
    <path
       style="color:#000000;fill:#000000;stroke-width:0.974986;stroke-linecap:round;-inkscape-stroke:none"
       d="m 6.2239046,10.281095 c 0,0 -0.2006161,0.0071 -0.4466682,-0.0019 -0.2460521,-0.009 -0.5295439,-0.02353 -0.7906976,-0.110654 C 4.4655043,9.9947206 3.8560388,9.7404959 3.4716685,9.1955433 2.8157132,8.2655428 2.8481642,7.223813 3.2606891,6.4177398 4.003942,4.9654247 5.4205343,3.6948123 6.9176657,2.9321306 7.4706798,2.6504086 8.2344317,2.5242494 8.8906084,2.4418184 9.5467851,2.3593884 10.086159,2.3368874 10.086159,2.3368874 a 0.38622538,0.38767146 0 0 1 0.402951,0.3720215 0.38622538,0.38767146 0 0 1 -0.370639,0.4025532 c 0,0 -0.5089872,0.022984 -1.1309261,0.1011152 C 8.365606,3.2907076 7.6242849,3.4409522 7.2673974,3.6227611 5.9077377,4.3154107 4.588617,5.518575 3.9468474,6.7725918 3.6415154,7.3692103 3.601948,8.0391409 4.1027061,8.7491059 4.3188612,9.0555663 4.764613,9.2788211 5.2298304,9.4340176 c 0.088529,0.029534 0.3585635,0.062659 0.5759168,0.07059 0.2173533,0.00793 0.3915473,0.0019 0.3915473,0.0019 A 0.38622538,0.38767146 0 0 1 6.5964448,9.8804503 0.38622538,0.38767146 0 0 1 6.2239046,10.281095 Z"
       id="path2-4" />
  </g>
</svg>
