<?xml version="1.0" encoding="UTF-8" standalone="no"?>
<!-- Created with Inkscape (http://www.inkscape.org/) -->

<svg
   width="48"
   height="48"
   viewBox="0 0 12.7 12.7"
   version="1.1"
   id="svg1"
   sodipodi:docname="purl.svg"
   inkscape:export-filename="purl.png"
   inkscape:export-xdpi="96"
   inkscape:export-ydpi="96"
   inkscape:version="1.3.2 (091e20e, 2023-11-25, custom)"
   xmlns:inkscape="http://www.inkscape.org/namespaces/inkscape"
   xmlns:sodipodi="http://sodipodi.sourceforge.net/DTD/sodipodi-0.dtd"
   xmlns="http://www.w3.org/2000/svg"
   xmlns:svg="http://www.w3.org/2000/svg">
  <sodipodi:namedview
     id="namedview1"
     pagecolor="#ffffff"
     bordercolor="#666666"
     borderopacity="1.0"
     inkscape:showpageshadow="2"
     inkscape:pageopacity="0.0"
     inkscape:pagecheckerboard="0"
     inkscape:deskcolor="#d1d1d1"
     showguides="true"
     inkscape:zoom="14.520833"
     inkscape:cx="23.965567"
     inkscape:cy="24"
     inkscape:window-width="1920"
     inkscape:window-height="974"
     inkscape:window-x="-11"
     inkscape:window-y="-11"
     inkscape:window-maximized="1"
     inkscape:current-layer="svg1">
    <sodipodi:guide
       position="4.4094692,8.2723099"
       orientation="-0.70710678,-0.70710678"
       id="guide1"
       inkscape:locked="false" />
    <sodipodi:guide
       position="6.9968436,7.0515065"
       orientation="0.70710678,-0.70710678"
       id="guide2"
       inkscape:locked="false" />
  </sodipodi:namedview>
  <defs
     id="defs1" />
  <g
     id="path1"
     transform="matrix(0.9200153,0,0,0.92804377,0.50787162,0.38478312)">
    <path
       d="M 8.5564094,6.3602862 A 2.2060218,2.2324255 0 0 1 6.3503876,8.5927117 2.2060218,2.2324255 0 0 1 4.1443658,6.3602862 2.2060218,2.2324255 0 0 1 6.3503876,4.1278608 2.2060218,2.2324255 0 0 1 8.5564094,6.3602862 Z"
       id="path2" />
    <path
       d="m 6.3496094,3.828125 c -1.3823845,0 -2.5058593,1.1381404 -2.5058594,2.53125 0,1.3931097 1.1234748,2.5332031 2.5058594,2.5332031 1.3823845,0 2.5058593,-1.1400934 2.5058594,-2.5332031 -1e-7,-1.3931096 -1.1234749,-2.53125 -2.5058594,-2.53125 z m 0,0.5996094 c 1.0543173,0 1.9062499,0.8588837 1.90625,1.9316406 0,1.072757 -0.8519326,1.9335938 -1.90625,1.9335938 -1.0543174,0 -1.90625,-0.8608368 -1.90625,-1.9335938 0,-1.0727569 0.8519326,-1.9316406 1.90625,-1.9316406 z"
       id="path3" />
  </g>
</svg>
