<?xml version="1.0" encoding="UTF-8" standalone="no"?>
<!-- Created with Inkscape (http://www.inkscape.org/) -->

<svg
   width="48"
   height="48"
   viewBox="0 0 12.7 12.7"
   version="1.1"
   id="svg1"
   xmlns="http://www.w3.org/2000/svg"
   xmlns:svg="http://www.w3.org/2000/svg">
  <defs
     id="defs1" />
  <path
     id="path1"
     d="M 9.8817531,2.3820654 A 0.40513501,0.40513501 0 0 0 9.4921128,2.6084081 L 8.5681382,4.4971817 C 7.0713764,4.4943203 5.5747388,4.4902597 4.077973,4.4873632 L 3.1498643,2.6301122 A 0.40513501,0.40513501 0 0 0 2.6051947,2.4482112 0.40513501,0.40513501 0 0 0 2.4238104,2.9913305 l 0.7456909,1.4939656 c -0.083334,-1.614e-4 -0.166263,1.613e-4 -0.2495971,0 A 0.40513501,0.40513501 0 0 0 2.5132106,4.8899226 0.40513501,0.40513501 0 0 0 2.9178371,5.2960994 c 0.2187536,4.236e-4 0.4375369,0.00113 0.6562907,0.00155 L 5.6365342,9.4265966 C 4.7211585,9.4248266 3.805826,9.4247593 2.8904486,9.4229793 A 0.40513501,0.40513501 0 0 0 2.4842718,9.827089 0.40513501,0.40513501 0 0 0 2.8883815,10.233266 c 2.308627,0.0045 4.6170387,0.0075 6.9256755,0.01188 A 0.40513501,0.40513501 0 0 0 10.220233,9.8410416 0.40513501,0.40513501 0 0 0 9.816124,9.4348648 C 8.8948914,9.433115 7.9737028,9.4325021 7.0524684,9.4307307 l 2.019515,-4.1232625 c 0.2571666,4.905e-4 0.5143624,0.00158 0.7715292,0.00207 A 0.40513501,0.40513501 0 0 0 10.249689,4.9054255 0.40513501,0.40513501 0 0 0 9.8455796,4.4992488 c -0.1256519,-2.386e-4 -0.2515863,2.392e-4 -0.3772379,0 L 10.220233,2.966009 A 0.40513501,0.40513501 0 0 0 10.034715,2.4228897 0.40513501,0.40513501 0 0 0 9.8817531,2.3820654 Z M 4.4820827,5.2997167 c 1.2291847,0.00238 2.4584426,0.00385 3.6876302,0.0062 l -1.824178,3.7284546 z" />
</svg>
