<?xml version="1.0" encoding="UTF-8" standalone="no"?>
<!-- Created with Inkscape (http://www.inkscape.org/) -->

<svg
   width="48"
   height="48"
   viewBox="0 0 12.7 12.7"
   version="1.1"
   id="svg1"
   xmlns="http://www.w3.org/2000/svg"
   xmlns:svg="http://www.w3.org/2000/svg">
  <defs
     id="defs1" />
  <path
     id="path1-56"
     d="M 10.035028,2.4229316 C 9.8338768,2.3238727 9.59052,2.4070341 9.4920587,2.6084785 L 8.5682306,4.4971503 C 7.0714643,4.4942889 5.5747665,4.4902812 4.0779962,4.4873847 L 3.1502618,2.6299628 C 3.0503484,2.428863 2.8059306,2.3473905 2.60534,2.4483222 2.4053727,2.5482115 2.3240905,2.7911838 2.4236993,2.991291 l 0.7460938,1.4941406 c -0.083334,-1.614e-4 -0.1666656,1.613e-4 -0.25,0 C 2.695935,4.484815 2.5140054,4.66587 2.5135431,4.8897284 c -6.166e-4,0.2238581 0.1804384,0.4057877 0.4042969,0.40625 0.2187542,4.236e-4 0.4374956,0.00153 0.65625,0.00195 l 2.3164062,4.6386723 c 0.090978,0.092903 0.2210196,0.1364933 0.3496094,0.1171873 0.2600775,0.0301 0.3518316,-0.01317 0.4733484,-0.04625 L 9.0721368,5.3076972 c 0.2571672,4.905e-4 0.514317,0.00146 0.7714844,0.00195 0.2238568,6.17e-4 0.4057868,-0.1804362 0.4062508,-0.4042938 6.17e-4,-0.2238584 -0.180439,-0.4057882 -0.4042977,-0.40625 -0.1256522,-2.386e-4 -0.2513009,2.392e-4 -0.3769531,0 L 10.220575,2.9659003 c 0.09906,-0.2011511 0.0159,-0.4445074 -0.185547,-0.5429687 z M 4.4822931,5.2998847 c 1.2291883,0.00238 2.4583088,0.00351 3.6875,0.00586 l -1.8242188,3.728515 z" />
</svg>
